<svg width="536" height="45" viewBox="0 0 536 45" fill="none" xmlns="http://www.w3.org/2000/svg">
<path d="M47.24 44C46.344 36.64 44.104 13.472 42.888 0.927998C42.888 0.927998 40.904 0.927998 39.24 0.927998L24.584 37.472C24.584 37.344 24.584 36.512 24.52 36.384C22.024 30.368 17.288 19.36 11.848 5.28C11.144 3.488 10.184 0.927998 10.184 0.927998C10.184 0.927998 7.176 0.927998 5.512 0.927998L5.64 3.936L0.84 43.936L2.632 44L7.112 5.472L7.368 6.752L22.856 44.96H23.368L38.984 5.92L38.92 6.688C38.92 6.688 41.288 31.584 42.44 44H47.24ZM89.5265 44C86.9025 37.92 78.7745 18.72 73.2065 4.832C72.5025 3.104 71.6065 0.287998 71.6065 0.287998H71.0305L52.9825 44C52.9825 44 53.1745 44 54.8385 44L61.1105 28.896H78.2625C80.3105 34.016 82.5505 39.84 84.0225 44H89.5265ZM61.8145 27.04L69.7505 7.072V7.84C69.7505 7.84 74.1025 18.592 77.4945 27.04H61.8145ZM101.437 44C101.437 31.776 101.373 13.216 101.373 0.927998H96.6365C96.7645 7.584 96.5725 40.224 96.5725 44H101.437ZM109.748 40.096C113.14 42.976 116.916 44.512 122.228 44.512C129.14 44.512 135.348 39.968 135.348 32.16C135.348 17.76 114.868 21.408 114.868 9.12C114.868 4.384 118.9 2.4 122.868 2.4C125.556 2.4 128.756 2.784 131.188 7.136L132.788 3.616C130.612 1.632 126.516 0.48 123.06 0.48C117.556 0.48 111.156 4.064 111.156 11.104C111.156 25.504 131.38 22.24 131.38 34.464C131.38 39.328 127.348 42.528 122.1 42.528C118.324 42.528 114.1 41.632 111.156 36L109.748 40.096ZM185.746 22.752C185.746 10.656 176.85 0.48 163.09 0.48C149.266 0.48 140.178 11.04 140.178 23.136C140.178 37.088 150.354 44.576 163.154 44.576C175.89 44.576 185.746 36.64 185.746 22.752ZM163.026 42.784C153.17 42.72 145.618 34.464 145.618 23.136C145.618 13.344 150.994 2.464 163.026 2.464C175.122 2.464 180.306 12.96 180.306 22.752C180.306 34.08 172.946 42.848 163.026 42.784ZM224.032 35.36C224.032 35.36 197.856 4.512 195.232 0.927998H192.48L192.864 4.192C192.928 13.472 192.864 40.544 192.864 44H194.912C194.912 31.52 194.912 20.384 194.912 8.032L194.464 6.624C194.464 6.624 221.856 39.712 226.464 44.768C226.144 32.48 226.4 13.216 226.4 0.927998H224.352C224.48 7.584 224.48 32.672 224.48 36.448L224.032 35.36ZM297.178 44C296.282 36.64 294.042 13.472 292.826 0.927998C292.826 0.927998 290.842 0.927998 289.178 0.927998L274.522 37.472C274.522 37.344 274.522 36.512 274.458 36.384C271.962 30.368 267.226 19.36 261.786 5.28C261.082 3.488 260.122 0.927998 260.122 0.927998C260.122 0.927998 257.114 0.927998 255.45 0.927998L255.578 3.936L250.778 43.936L252.57 44L257.05 5.472L257.306 6.752L272.794 44.96H273.306L288.922 5.92L288.858 6.688C288.858 6.688 291.226 31.584 292.378 44H297.178ZM339.464 44C336.84 37.92 328.712 18.72 323.144 4.832C322.44 3.104 321.544 0.287998 321.544 0.287998H320.968L302.92 44C302.92 44 303.112 44 304.776 44L311.048 28.896H328.2C330.248 34.016 332.488 39.84 333.96 44H339.464ZM311.752 27.04L319.688 7.072V7.84C319.688 7.84 324.04 18.592 327.432 27.04H311.752ZM356.12 44C356.12 31.712 356.184 15.008 356.184 2.656C356.184 2.656 368.664 2.656 371.992 2.656V0.927998C370.328 0.927998 336.728 0.927998 336.728 0.927998L336.28 2.656C339.608 2.656 351.384 2.656 351.32 2.656C351.32 12.512 351.32 40.224 351.32 44H356.12ZM405.339 44C402.715 37.92 394.587 18.72 389.019 4.832C388.315 3.104 387.419 0.287998 387.419 0.287998H386.843L368.795 44C368.795 44 368.987 44 370.651 44L376.923 28.896H394.075C396.123 34.016 398.363 39.84 399.835 44H405.339ZM377.627 27.04L385.563 7.072V7.84C385.563 7.84 389.915 18.592 393.307 27.04H377.627ZM417.426 44C420.242 44 427.346 44.128 431.186 43.68C436.114 43.168 450.322 39.968 450.322 21.6C450.322 7.456 438.162 2.08 432.402 1.312C429.97 0.991997 426.578 0.927998 423.058 0.927998H412.37C412.498 7.584 412.37 40.224 412.37 44H417.426ZM417.234 2.976C419.858 2.976 427.218 2.848 430.738 3.68C439.89 5.728 445.778 14.752 445.458 23.584C445.01 35.552 437.65 39.136 433.618 40.736C429.266 42.528 418.514 41.952 417.298 41.504C417.298 29.216 417.234 15.264 417.234 2.976ZM500.058 22.752C500.058 10.656 491.162 0.48 477.402 0.48C463.578 0.48 454.49 11.04 454.49 23.136C454.49 37.088 464.666 44.576 477.466 44.576C490.202 44.576 500.058 36.64 500.058 22.752ZM477.338 42.784C467.482 42.72 459.93 34.464 459.93 23.136C459.93 13.344 465.306 2.464 477.338 2.464C489.434 2.464 494.618 12.96 494.618 22.752C494.618 34.08 487.258 42.848 477.338 42.784ZM535.465 44C530.985 37.024 525.865 29.088 523.113 23.904C528.425 22.24 531.369 18.208 531.369 12.32C531.369 6.624 526.761 0.927998 516.841 0.927998C516.841 0.927998 509.097 0.927998 507.433 0.927998C507.561 7.584 507.433 40.224 507.433 44H512.297C512.297 31.52 512.297 15.456 512.297 3.168L512.617 2.784C522.601 2.016 526.825 7.456 526.825 12.768C526.825 18.848 522.153 24.032 514.345 24.032L513.833 24.544C515.241 24.8 517.161 24.608 518.377 24.544C521.769 30.432 527.977 40.864 529.833 44H535.465Z" fill="black"/>
</svg>
